Fly_normalized_Motion_pl04
version=1
nRows=16
nColumns=43
inDegrees=yes
endheader
time		pelvis_tilt		pelvis_list		pelvis_rotation		pelvis_tx		pelvis_ty		pelvis_tz		hip_flexion_r		hip_adduction_r		hip_rotation_r		knee_angle_r		ankle_angle_r		subtalar_angle_r		mtp_angle_r		hip_flexion_l		hip_adduction_l		hip_rotation_l		knee_angle_l		ankle_angle_l		subtalar_angle_l		mtp_angle_l		lumbar_extension		lumbar_bending		lumbar_rotation		neck_flexion		neck_lateral_bending		neck_rotation		arm_flex_r		arm_add_r		arm_rot_r		elbow_flex_r		pro_sup_r		wrist_flex_r		wrist_dev_r		hand_finger_flex_r		arm_flex_l		arm_add_l		arm_rot_l		elbow_flex_l		pro_sup_l		wrist_flex_l		wrist_dev_l		hand_finger_flex_l		
2.872348		3.688749		-5.304093		96.739702		-0.028513		1.248302		0.721875		30.843005		-2.428827		-15.207858		-17.005202		-17.358196		8.911625		28.477031		27.598208		-6.477526		-11.681467		-15.193643		-22.059877		2.194926		16.232772		-19.335537		6.321094		1.410558		-28.626454		5.413459		-4.786847		-68.195059		-20.448456		-19.342747		60.829997		124.210116		-3.291832		-10.710276		-35.806297		-104.638524		-25.883379		-45.050777		80.036712		141.128406		-3.053278		-13.657338		-22.565957		
2.876313		3.574407		-4.968110		96.778035		-0.029023		1.236691		0.712939		30.043412		-2.468314		-15.102916		-15.969527		-17.725084		8.015721		28.420107		26.918821		-6.302699		-11.879685		-14.356537		-22.251446		1.668962		16.262032		-19.089306		6.339354		1.398854		-29.954061		5.040094		-4.889523		-69.722736		-19.469223		-20.235336		59.975503		124.583958		-3.283029		-11.247193		-35.449949		-105.181491		-25.051684		-45.029169		78.803686		141.603724		-2.736035		-13.916110		-22.611745		
2.880278		3.461184		-4.750438		96.824914		-0.029581		1.224460		0.705120		29.688656		-2.578171		-15.025692		-15.425158		-17.725810		7.764011		28.400113		26.707100		-6.155637		-11.903070		-14.096590		-22.290578		1.576984		16.284500		-18.949661		6.300381		1.425286		-30.162543		4.924491		-4.956213		-71.024692		-18.769859		-20.482450		59.203274		124.717929		-3.226616		-11.284629		-35.314328		-105.736292		-24.202211		-44.949314		77.864757		141.758595		-2.586267		-13.917563		-22.629833		
2.884242		3.406762		-4.537929		96.831673		-0.030129		1.212371		0.696716		29.233552		-2.616728		-14.994098		-14.805557		-18.028389		7.187719		28.375867		26.344027		-6.053036		-11.960856		-13.615177		-22.270376		1.486548		16.330478		-18.704060		6.340456		1.399707		-30.858898		4.764284		-5.038203		-72.194030		-17.926855		-21.198946		58.277531		124.814145		-3.304370		-11.311238		-35.197033		-105.836083		-23.225620		-44.968410		76.616682		141.897458		-2.489582		-13.935612		-22.693835		
2.888207		3.306823		-4.303364		96.871277		-0.030745		1.200408		0.688265		28.767152		-2.728004		-14.920531		-14.305173		-18.367596		6.505367		28.352515		26.009457		-5.910758		-11.928852		-13.290582		-22.248110		1.490743		16.404985		-18.529001		6.388360		1.346657		-31.564938		4.481226		-5.084503		-73.187451		-17.044360		-22.004009		57.253312		124.874411		-3.406442		-11.293178		-35.108354		-105.557311		-22.319835		-45.050669		75.196714		142.002936		-2.455099		-13.936589		-22.779060		
2.892172		3.185384		-3.985167		96.995751		-0.031664		1.188235		0.680408		28.440517		-2.962122		-14.830056		-14.255797		-18.581201		5.937620		28.330600		25.734066		-5.718681		-11.827360		-13.184249		-22.228706		1.549673		16.504120		-18.551347		6.472594		1.247649		-32.053302		4.146828		-5.125542		-73.991161		-16.257301		-22.688532		56.222548		124.927608		-3.459523		-11.247029		-35.028380		-105.216116		-21.557185		-45.047612		73.837470		142.094330		-2.456273		-13.951035		-22.867354		
2.896136		3.024051		-3.612398		97.156154		-0.032682		1.176153		0.672772		28.079396		-3.281545		-14.782472		-14.284055		-18.653998		5.348701		28.294418		25.427777		-5.467140		-11.630199		-13.124827		-22.217288		1.639300		16.707085		-18.665137		6.538590		1.017782		-32.172555		3.601371		-5.205371		-74.675766		-15.585796		-23.379870		55.337187		125.089283		-3.442379		-11.388517		-34.873040		-104.981046		-20.950781		-44.829469		72.571609		142.208646		-2.598574		-14.220596		-23.034441		
2.900101		2.879343		-3.212635		97.354868		-0.033682		1.164000		0.665175		27.740872		-3.609011		-14.725230		-14.457468		-18.745877		4.793572		28.254087		25.111467		-5.231256		-11.403020		-13.112720		-22.210315		1.730459		16.940523		-18.829074		6.637777		0.790037		-32.271949		3.055991		-5.300057		-75.260117		-14.921823		-24.064572		54.471414		125.279019		-3.400327		-11.555020		-34.694276		-104.588873		-20.410938		-44.639421		71.294791		142.312420		-2.795820		-14.496283		-23.228845		
2.904066		2.723053		-2.838263		97.560294		-0.034278		1.151773		0.657856		27.571356		-3.910350		-14.570513		-14.903284		-18.675274		4.873050		28.215013		25.036465		-5.056648		-10.942383		-13.567716		-22.080894		1.788511		17.236882		-19.111866		6.664953		0.667757		-32.492724		3.011264		-5.449982		-75.333877		-14.226751		-24.720765		53.127110		125.353648		-3.318319		-11.291169		-34.520901		-103.403221		-19.823906		-44.898742		69.537449		142.221768		-3.061465		-14.058378		-23.425235		
2.908030		2.671581		-2.514675		97.686761		-0.035085		1.139128		0.650842		27.538289		-4.155464		-14.566627		-15.463253		-18.619627		4.956525		28.195252		24.970706		-4.975187		-10.683871		-13.867839		-22.018858		1.827216		17.400588		-19.240085		6.724448		0.603494		-32.494208		2.951742		-5.480448		-75.618705		-13.835384		-25.003518		52.234305		125.391045		-3.241448		-11.127147		-34.416456		-102.928233		-19.387777		-44.815074		68.654703		142.155018		-3.170173		-13.840244		-23.515317		
2.911995		2.559101		-2.207698		97.934773		-0.035476		1.126626		0.644149		27.557830		-4.446083		-14.454373		-16.104506		-18.479597		5.232344		28.156980		25.107077		-4.811682		-10.069133		-14.570946		-21.783989		1.907564		17.766671		-19.626762		6.779393		0.360173		-32.399603		2.828082		-5.499119		-75.254278		-13.294886		-25.541930		50.934002		125.434633		-3.145783		-10.937561		-34.209622		-101.642196		-18.931363		-44.733022		67.053223		141.893490		-3.475403		-13.295484		-23.724994		
2.915960		2.522809		-1.926187		98.145335		-0.036054		1.113918		0.637530		27.623358		-4.692628		-14.431737		-16.766239		-18.328270		5.602073		28.115061		25.330321		-4.730031		-9.446966		-15.381780		-21.568181		1.958100		18.196240		-19.899939		6.890293		0.142144		-32.130453		2.710798		-5.455846		-74.958192		-12.961324		-25.976475		49.798838		125.530114		-3.071496		-10.879532		-33.983645		-100.567919		-18.592279		-44.517206		65.713821		141.500850		-3.849218		-12.811405		-23.952965		
2.919924		2.528936		-1.657372		98.336079		-0.036408		1.100977		0.631307		27.793435		-4.886744		-14.356829		-17.548936		-18.240397		6.008752		28.081490		25.634359		-4.699776		-8.917706		-16.273784		-21.393192		1.980939		18.576955		-20.239851		7.006857		-0.015601		-31.953899		2.665971		-5.392008		-74.558200		-12.687256		-26.268658		48.791749		125.608067		-3.028589		-10.811756		-33.805401		-99.464683		-18.293153		-44.267251		64.620229		141.089392		-4.145561		-12.340814		-24.126255		
2.923889		2.551988		-1.396246		98.462274		-0.036985		1.087889		0.625042		28.002674		-5.077546		-14.277008		-18.421071		-18.185776		6.375430		28.056945		25.910267		-4.695721		-8.503639		-17.139978		-21.254666		1.978894		18.888019		-20.521210		7.147420		-0.119118		-31.761708		2.651973		-5.311674		-74.190480		-12.573909		-26.500661		47.905058		125.657420		-3.027077		-10.738224		-33.683041		-98.451499		-18.045304		-44.029507		63.814111		140.704047		-4.394767		-11.934129		-24.257877		
2.927854		2.616588		-1.349891		98.592285		-0.037546		1.074560		0.619225		28.505535		-5.279674		-14.340492		-19.358683		-17.799552		7.044621		27.997594		26.697754		-4.674365		-7.677996		-18.570316		-20.785060		1.838304		19.711220		-20.769558		7.307007		-0.352510		-30.794743		2.517037		-5.051869		-73.243302		-12.546231		-26.879440		46.491635		125.764308		-3.232414		-10.908134		-33.463887		-96.915823		-17.663762		-43.410684		62.495145		139.588633		-5.233797		-11.176194		-24.588581		
2.931818		2.809959		-1.241119		98.911065		-0.037766		1.060935		0.613360		28.986808		-5.337163		-14.366784		-20.482152		-17.773578		7.546851		27.909029		27.510733		-4.763141		-6.984546		-20.027101		-20.730026		1.642155		20.854702		-20.917088		7.621684		-0.582312		-30.598622		2.517186		-4.915471		-72.642806		-12.467131		-27.005258		45.593711		125.926595		-3.568515		-11.327389		-33.173602		-95.799895		-17.685848		-42.607483		61.610595		138.125676		-6.292054		-10.647124		-24.848834		
